<svg width="17" height="21" viewBox="0 0 17 21" fill="none" xmlns="http://www.w3.org/2000/svg">
<g clip-path="url(#clip0_291_317)">
<path d="M15.6127 2.47507H13.3583V1.2405C13.3584 1.07678 13.3037 0.919733 13.2062 0.803892C13.1087 0.688052 12.9764 0.622912 12.8384 0.622803C12.7004 0.622694 12.5681 0.687624 12.4704 0.80331C12.3728 0.918996 12.3179 1.07596 12.3178 1.23968V2.47507H9.19636V1.2405C9.19641 1.15944 9.18299 1.07916 9.15689 1.00424C9.13079 0.92933 9.09251 0.86125 9.04423 0.803892C8.99595 0.746534 8.93863 0.70102 8.87553 0.669948C8.81242 0.638877 8.74478 0.622857 8.67646 0.622803C8.53849 0.622694 8.40612 0.687624 8.3085 0.80331C8.21087 0.918996 8.15597 1.07596 8.15587 1.23968V2.47507H5.03442V1.2405C5.03446 1.15944 5.02105 1.07916 4.99495 1.00424C4.96885 0.92933 4.93056 0.86125 4.88229 0.803892C4.83401 0.746534 4.77669 0.70102 4.71358 0.669948C4.65048 0.638877 4.58284 0.622857 4.51452 0.622803C4.37655 0.622694 4.24418 0.687624 4.14655 0.80331C4.04892 0.918996 3.99402 1.07596 3.99393 1.23968V2.47507H1.73955C1.37173 2.47507 1.01897 2.64838 0.758814 2.9569C0.498662 3.26543 0.352418 3.68391 0.352234 4.12033V18.7294C0.352234 19.166 0.498397 19.5846 0.758569 19.8933C1.01874 20.2021 1.37161 20.3755 1.73955 20.3755H15.6127C15.9806 20.3755 16.3335 20.2021 16.5937 19.8933C16.8538 19.5846 17 19.166 17 18.7294V4.12033C16.9998 3.68391 16.8536 3.26543 16.5934 2.9569C16.3333 2.64838 15.9805 2.47507 15.6127 2.47507ZM15.9595 18.7302C15.9595 18.8392 15.9231 18.9438 15.8582 19.0209C15.7933 19.0981 15.7052 19.1415 15.6134 19.1417H1.73955C1.64756 19.1417 1.55935 19.0984 1.4943 19.0212C1.42926 18.944 1.39272 18.8394 1.39272 18.7302V4.12116C1.3929 4.01216 1.42952 3.9077 1.49455 3.8307C1.55957 3.7537 1.64768 3.71046 1.73955 3.71046H3.99393V4.94502C3.99384 5.10874 4.04856 5.26579 4.14606 5.38163C4.24356 5.49747 4.37585 5.56261 4.51383 5.56272C4.65181 5.56283 4.78417 5.4979 4.8818 5.38221C4.97943 5.26653 5.03433 5.10956 5.03442 4.94585V3.71046H8.15587V4.94502C8.15578 5.10874 8.21051 5.26579 8.308 5.38163C8.4055 5.49747 8.53779 5.56261 8.67577 5.56272C8.81375 5.56283 8.94611 5.4979 9.04374 5.38221C9.14137 5.26653 9.19627 5.10956 9.19636 4.94585V3.71046H12.3178V4.94502C12.3177 5.10874 12.3724 5.26579 12.4699 5.38163C12.5674 5.49747 12.6997 5.56261 12.8377 5.56272C12.9757 5.56283 13.1081 5.4979 13.2057 5.38221C13.3033 5.26653 13.3582 5.10956 13.3583 4.94585V3.71046H15.6127C15.7044 3.71067 15.7924 3.75401 15.8572 3.83099C15.9221 3.90796 15.9586 4.0123 15.9588 4.12116L15.9595 18.7302Z" fill="#FBC12E"/>
<path d="M3.99481 8.03064H6.07578V9.88249H3.99481V8.03064ZM3.99481 11.1171H6.07578V12.9689H3.99481V11.1171ZM3.99481 14.2035H6.07578V16.0553H3.99481V14.2035ZM7.63651 14.2035H9.71748V16.0553H7.63651V14.2035ZM7.63651 11.1171H9.71748V12.9689H7.63651V11.1171ZM7.63651 8.03064H9.71748V9.88249H7.63651V8.03064ZM11.2782 14.2035H13.3592V16.0553H11.2782V14.2035ZM11.2782 11.1171H13.3592V12.9689H11.2782V11.1171ZM11.2782 8.03064H13.3592V9.88249H11.2782V8.03064Z" fill="#FBC12E"/>
</g>
<defs>
<clipPath id="clip0_291_317">
<rect width="16.6478" height="19.7531" fill="white" transform="translate(0.352234 0.623413)"/>
</clipPath>
</defs>
</svg>
