<svg width="498" height="420" viewBox="0 0 498 420" fill="none" xmlns="http://www.w3.org/2000/svg">
<g clip-path="url(#clip0_17_600)">
<path d="M326.621 77.3636C326.621 77.3636 328.08 67.9325 324.474 64.3329C320.868 60.7334 312.527 59.303 312.527 59.303C312.527 59.303 309.591 68.0834 311.065 71.2491C311.087 71.2931 311.109 71.3371 311.138 71.3843C311.691 72.4563 315.36 79.7874 316.551 88.5772C318.614 103.783 304.086 146.107 290.184 139.766C276.282 133.425 255.193 86.5244 255.193 86.5244L260.937 149.499C260.937 149.499 281.617 172.36 313.184 166.595C334.418 162.719 326.621 77.3636 326.621 77.3636Z" fill="#FD5E5A"/>
<path d="M181.694 96.0468C181.694 96.0468 122.905 153.772 122.905 166.233C122.905 178.695 132.924 179.236 132.924 179.236L186.485 139.141C189.022 132.071 188.39 99.4514 181.694 96.0468Z" fill="#FD5E5A"/>
<path d="M41.401 255.153H27.7379V258.989H41.401V255.153Z" fill="black"/>
<path d="M50.2477 309.238H36.5847V313.073H50.2477V309.238Z" fill="black"/>
<path d="M498 398.918C498 410.55 386.52 420 249.009 420C111.499 420 0 410.569 0 398.918C0 387.268 111.48 377.855 248.991 377.855C386.501 377.855 498 387.277 498 398.918Z" fill="#F47F17"/>
<path d="M181.694 96.0467L188.525 157.478L196.162 226.325H264.782L263.899 151.879L255.193 86.5244C255.193 86.5244 203.254 78.8663 181.694 96.0467Z" fill="#D2D5FF"/>
<path d="M227.591 170.477L227.512 179.236L223.24 180.921V170.361L221.001 164.511L189.069 162.401L196.162 226.313H264.782L264.037 163.366L229.471 163.863L227.591 170.477Z" fill="#C0C4F2"/>
<path d="M204.125 213.307C204.125 213.307 131.786 232.528 131.544 260.299C131.302 288.071 195.825 378.72 195.825 378.72L173.639 388.044L215.138 385.844L169.364 274.852L233.498 231.714L302.923 268.979L249.179 383.907L290.156 384.91C290.156 384.91 261.962 378.843 265.565 374.114C266.656 372.681 331.12 278.86 333.204 259.947C335.288 241.035 258.856 210.566 258.856 210.566L204.125 213.307Z" fill="#31302C"/>
<path d="M30.8535 214.169L50.9865 334.485H136.794L149.737 216.853L30.8535 214.169Z" fill="url(#paint0_linear_17_600)"/>
<path d="M149.737 216.853L30.8535 214.169L31.6363 218.834L48.6789 219.129L52.9042 235.741H60.2545V219.331L108.896 220.173L108.031 235.741H115.542L119.814 220.362L149.294 220.874L149.737 216.853Z" fill="#31302C"/>
<path d="M130.459 330.046L128.362 324.947H123.631V330.046H66.5232L66.9791 324.947H62.1439L59.8552 330.046H50.2445L50.9864 334.485H136.794L137.281 330.046H130.459Z" fill="#FF9739"/>
<path d="M130.475 193.216H119.868V195.492H130.475V193.216Z" fill="black"/>
<path d="M310.389 195.489H320.997V193.213H310.389V195.489Z" fill="black"/>
<path d="M33.488 295.418C32.9233 295.419 32.3764 295.22 31.9439 294.857C31.5113 294.494 31.2209 293.99 31.1238 293.434L21.0636 236.153C20.9958 235.837 20.9923 235.512 21.0533 235.195C21.1143 234.879 21.2385 234.578 21.4186 234.311C21.5986 234.043 21.8308 233.815 22.1011 233.64C22.3714 233.464 22.6744 233.345 22.9919 233.289C23.3094 233.234 23.6348 233.243 23.9487 233.316C24.2626 233.389 24.5586 233.524 24.8189 233.715C25.0791 233.905 25.2983 234.145 25.4633 234.422C25.6284 234.699 25.7358 235.006 25.7793 235.326L35.8395 292.607C35.8985 292.952 35.8816 293.305 35.7901 293.643C35.6985 293.98 35.5345 294.293 35.3094 294.561C35.0844 294.829 34.8037 295.044 34.487 295.192C34.1702 295.34 33.825 295.417 33.4754 295.418H33.488Z" fill="#31302C"/>
<path d="M54.2623 407.586C53.9283 407.585 53.6048 407.468 53.3472 407.256C53.0897 407.043 52.9142 406.747 52.8507 406.419L32.1613 300.162C32.1253 299.976 32.1264 299.785 32.1643 299.6C32.2022 299.414 32.2763 299.238 32.3822 299.081C32.4882 298.925 32.624 298.79 32.7819 298.686C32.9398 298.582 33.1167 298.509 33.3025 298.474C33.4883 298.438 33.6793 298.439 33.8647 298.477C34.0501 298.515 34.2262 298.589 34.3829 298.695C34.5397 298.8 34.6741 298.936 34.7783 299.094C34.8826 299.252 34.9548 299.429 34.9907 299.615L55.6802 405.872C55.7167 406.057 55.7163 406.248 55.679 406.433C55.6417 406.618 55.5682 406.794 55.4628 406.95C55.3573 407.107 55.222 407.241 55.0645 407.345C54.9071 407.449 54.7306 407.522 54.5453 407.557C54.4522 407.576 54.3574 407.586 54.2623 407.586Z" fill="black"/>
<path d="M136.266 410.506C136.597 410.481 136.909 410.342 137.149 410.113C137.389 409.883 137.543 409.578 137.583 409.249L150.312 301.749C150.341 301.378 150.225 301.011 149.989 300.724C149.753 300.436 149.415 300.251 149.045 300.208C148.676 300.165 148.304 300.266 148.007 300.49C147.711 300.715 147.513 301.046 147.455 301.413L134.728 408.928C134.706 409.115 134.721 409.305 134.772 409.487C134.823 409.669 134.909 409.839 135.026 409.987C135.143 410.135 135.288 410.259 135.453 410.351C135.617 410.444 135.798 410.503 135.986 410.525C136.08 410.528 136.173 410.522 136.266 410.506Z" fill="black"/>
<path d="M233.463 193.216H201.506V199.789H233.463V193.216Z" fill="black"/>
<path d="M221.001 197.233H217.486V251.877H221.001V197.233Z" fill="black"/>
<path d="M85.4962 77.3636H79.7462V362.766H85.4962V77.3636Z" fill="black"/>
<path d="M87.7377 124.051H77.1934V142.907H87.7377V124.051Z" fill="black"/>
<path d="M141.409 107.597C135.099 119.857 103.683 116.267 71.2012 99.5678C38.7193 82.8684 17.5236 59.3911 23.8333 47.1275C30.1429 34.8639 61.5749 38.4603 94.0411 55.1565C126.507 71.8528 147.716 95.3332 141.409 107.597Z" fill="#FAAF00"/>
<path d="M114.561 93.7896C111.134 100.454 94.0568 98.5051 76.4169 89.4261C58.7769 80.347 47.2516 67.5899 50.6816 60.9346C54.1115 54.2794 71.1855 56.219 88.8255 65.2981C106.465 74.3771 117.988 87.128 114.561 93.7896Z" fill="#FFCF6E"/>
<path d="M29.3601 400.748L83.7828 325.792L81.4564 324.101L25.8076 400.748H29.3601Z" fill="black"/>
<path d="M141.821 400.748L83.7671 324.079L81.4752 325.814L138.215 400.748H141.821Z" fill="black"/>
<path d="M336.624 99.5362C343.179 111.671 374.536 107.446 406.659 90.1051C438.783 72.7644 459.516 48.8565 452.965 36.7217C446.413 24.587 415.057 28.8121 382.93 46.1529C350.803 63.4936 330.073 87.3952 336.624 99.5362Z" fill="#FAAF00"/>
<path d="M363.19 85.1946C366.752 91.7964 383.785 89.4921 401.23 80.0672C418.675 70.6424 429.946 57.6557 426.381 51.0633C422.816 44.4709 405.785 46.7659 388.34 56.1907C370.895 65.6156 359.631 78.5928 363.19 85.1946Z" fill="#FFCF6E"/>
<path d="M387.271 72.1892C388.12 73.761 392.173 73.2109 396.329 70.9663C400.485 68.7217 403.164 65.622 402.302 64.0501C401.441 62.4782 397.401 63.0284 393.245 65.273C389.089 67.5176 386.426 70.6173 387.271 72.1892Z" fill="black"/>
<path d="M397.683 68.0957L391.931 68.2102L397.609 353.556L403.361 353.441L397.683 68.0957Z" fill="black"/>
<path d="M460.837 393.923L400.916 314.793L398.621 316.528L457.228 393.923H460.837Z" fill="black"/>
<path d="M344.723 393.923L400.935 316.506L398.605 314.815L341.167 393.923H344.723Z" fill="black"/>
<path d="M348.936 359.575L353.152 359.484L349.825 182.433L345.61 182.524L348.936 359.575Z" fill="black"/>
<path d="M395.386 391.439L351.328 329.203L349.646 330.568L392.742 391.439H395.386Z" fill="black"/>
<path d="M310.006 391.439L351.341 330.549L349.634 329.222L307.4 391.439H310.006Z" fill="black"/>
<path d="M390.996 133.751L401.539 133.539L401.16 114.69L390.618 114.902L390.996 133.751Z" fill="black"/>
<path d="M350.819 182.313H344.717V188.415H350.819V182.313Z" fill="black"/>
<path d="M357.701 180.896C356.506 180.896 355.336 180.548 354.335 179.895C353.334 179.242 352.545 178.311 352.064 177.217C351.718 176.469 351.162 175.837 350.464 175.398C349.766 174.959 348.955 174.732 348.131 174.743C347.306 174.732 346.496 174.959 345.798 175.398C345.1 175.837 344.544 176.469 344.198 177.217C343.718 178.311 342.929 179.242 341.928 179.895C340.928 180.548 339.759 180.896 338.564 180.896H307.604V183.725H391.921V180.896H357.701Z" fill="#E0990B"/>
<path d="M207.807 98.546C207.362 98.5459 206.928 98.6731 206.554 98.9127C206.18 99.1523 205.883 99.4941 205.697 99.8976C205.512 100.301 205.446 100.749 205.508 101.189C205.57 101.629 205.757 102.041 206.046 102.378L172.765 155.957C172.645 156.155 172.607 156.392 172.662 156.618C172.716 156.843 172.858 157.038 173.056 157.159C173.254 157.28 173.492 157.317 173.718 157.263C173.943 157.208 174.138 157.066 174.259 156.868L207.137 103.092C207.457 103.189 207.794 103.216 208.125 103.171C208.456 103.127 208.774 103.011 209.056 102.832C209.339 102.653 209.579 102.415 209.761 102.135C209.943 101.855 210.063 101.538 210.112 101.208C210.16 100.877 210.137 100.54 210.044 100.219C209.95 99.898 209.788 99.6011 209.569 99.3484C209.351 99.0957 209.08 98.8932 208.776 98.7547C208.471 98.6163 208.141 98.5451 207.807 98.546Z" fill="#FB8603"/>
<path d="M278.096 49.0419C278.147 49.4832 278.324 49.9006 278.605 50.2444C278.887 50.5881 279.261 50.8439 279.683 50.9813C280.106 51.1187 280.559 51.132 280.988 51.0194C281.418 50.9069 281.807 50.6734 282.108 50.3466L339.19 77.1687C339.295 77.2348 339.413 77.2777 339.536 77.2947C339.658 77.3117 339.783 77.3024 339.902 77.2674C340.021 77.2323 340.131 77.1723 340.225 77.0914C340.319 77.0106 340.395 76.9106 340.448 76.7982C340.5 76.6858 340.528 76.5635 340.529 76.4395C340.531 76.3155 340.506 76.1926 340.456 76.079C340.406 75.9654 340.333 75.8636 340.241 75.7805C340.149 75.6974 340.04 75.6348 339.922 75.5969L282.68 49.1897C282.737 48.8619 282.724 48.5255 282.64 48.2033C282.557 47.8812 282.404 47.5808 282.194 47.3226C281.984 47.0645 281.721 46.8545 281.423 46.7071C281.124 46.5596 280.797 46.4781 280.465 46.4681C280.132 46.4581 279.801 46.5198 279.494 46.649C279.187 46.7782 278.912 46.9719 278.687 47.2169C278.461 47.462 278.292 47.7526 278.189 48.0692C278.086 48.3857 278.052 48.7207 278.09 49.0514L278.096 49.0419Z" fill="#FB8603"/>
<path d="M122.892 166.233C122.892 166.233 122.496 180.921 135.672 180.921C148.847 180.921 163.447 160.235 168.433 155.249C173.419 150.263 174.658 150.219 176.944 147.94C179.229 145.661 184.416 147.531 183.546 144.168C182.917 141.709 186.671 139.914 184.781 138.025C182.892 136.135 184.684 136.258 183.932 135.51C183.181 134.762 190.912 130.112 189.692 128.908C188.472 127.704 170.326 137.559 168.436 142.92C166.547 148.28 124.81 158.528 122.892 166.233Z" fill="#FC7575"/>
<path d="M122.285 168.906L137.916 240.271H204.531L214.578 170.499L122.285 168.906Z" fill="url(#paint1_linear_17_600)"/>
<path d="M214.578 170.499L122.285 168.906L122.892 171.672L136.124 171.848L139.406 181.7H145.112V171.967L182.876 172.467L182.203 181.7H188.032L191.349 172.58L214.236 172.882L214.578 170.499Z" fill="#31302C"/>
<path d="M199.614 237.636L197.985 234.615H194.313V237.636H149.976L150.331 234.615H146.577L144.801 237.636H137.341L137.916 240.271H204.531L204.911 237.636H199.614Z" fill="#FF9739"/>
<path d="M318.579 168.906L302.948 240.271H236.334L226.286 170.499L318.579 168.906Z" fill="url(#paint2_linear_17_600)"/>
<path d="M226.286 170.499L318.579 168.906L317.972 171.672L304.74 171.848L301.461 181.7H295.755V171.967L257.991 172.467L258.664 181.7H252.832L249.516 172.58L226.629 172.882L226.286 170.499Z" fill="#31302C"/>
<path d="M241.25 237.636L242.879 234.615H246.554V237.636H290.888L290.533 234.615H294.287L296.063 237.636H303.526L302.948 240.271H236.334L235.953 237.636H241.25Z" fill="#FF9739"/>
<path d="M226.286 418.711C282.337 418.711 327.775 372.281 327.775 315.006C327.775 257.732 282.337 211.302 226.286 211.302C170.235 211.302 124.797 257.732 124.797 315.006C124.797 372.281 170.235 418.711 226.286 418.711Z" fill="#31302C"/>
<path d="M326.611 296.053C326.008 292.167 323.876 284.107 321.993 279.177C314.612 258.771 300.976 241.216 283.029 229.016C323.065 257.596 325.785 299.143 326.146 300.215C326.976 304.843 327.162 315.34 327.149 314.846C327.149 315.186 327.052 318.801 327.052 318.848C324.769 370.134 288.043 409.456 241.197 416.969C241.15 416.969 190.145 424.892 153.459 387.236C183.219 419.233 231.322 429.186 272.094 408.299C305.919 390.968 326.693 356.683 328.271 320.25C328.271 320.203 328.359 316.437 328.366 316.204C328.529 305.717 326.514 295.437 326.611 296.053Z" fill="#F2B111"/>
<path d="M307.604 315C307.604 360.898 271.199 398.098 226.286 398.098C181.373 398.098 144.968 360.898 144.968 315C144.968 269.102 181.373 231.912 226.286 231.912C271.199 231.912 307.604 269.102 307.604 315Z" fill="#DDD9C3"/>
<path d="M226.286 381.269C199.636 381.427 175.922 364.998 165.855 340.304C148.074 296.823 179.163 247.797 226.286 247.527C226.446 247.526 226.605 247.556 226.753 247.617C226.901 247.677 227.036 247.767 227.15 247.879C227.264 247.992 227.355 248.126 227.417 248.274C227.479 248.421 227.511 248.58 227.512 248.74C227.512 249.928 226.236 249.997 226.286 249.966C180.807 249.693 149.699 296.961 166.704 339.964C176.249 364.193 199.4 381.112 226.286 381.269Z" fill="#F7F3E4"/>
<path d="M219.728 47.621C219.728 47.621 218.137 41.1921 220.834 39.4473C223.532 37.7026 229.568 44.6282 227.631 48.1334C225.695 51.6386 221.444 52.085 219.728 47.621Z" fill="#FD5E5A"/>
<path d="M230.59 84.0912L224.617 69.0894L196.174 63.7703C196.174 63.7703 209.202 93.0822 214.258 97.4709C215.155 98.2216 216.196 98.782 217.317 99.1182C226.088 101.913 233.998 92.6515 230.59 84.0912Z" fill="#FC7575"/>
<path d="M227.591 76.5589L224.617 69.0894L196.174 63.7703C196.174 63.7703 198.799 69.6742 202.148 76.5809C206.442 79.0676 210.825 80.7463 214.409 81.4442C220.382 82.6105 225.113 80.5137 227.591 76.5589Z" fill="#FD5E5A"/>
<path d="M202.277 24.2789C202.277 24.2789 209.473 22.6599 213.465 27.0171C217.458 31.3742 229.464 56.1436 229.464 63.1163C229.464 70.0891 223.296 74.8172 214.374 73.3239C205.452 71.8307 191.522 65.1063 186.495 55.4048C181.468 45.7033 187.648 24.2789 202.277 24.2789Z" fill="#FC7575"/>
<path d="M189.99 46.1246C189.99 46.1246 193.332 47.4323 194.706 45.1814C196.08 42.9305 195.989 40.2395 195.989 40.2395C195.989 40.2395 201.217 42.8519 203.446 41.6385C205.675 40.425 205.502 37.0644 205.502 37.0644C205.502 37.0644 209.275 39.2115 211.246 37.0644C211.817 36.4707 212.263 35.7682 212.558 34.9986C212.852 34.229 212.989 33.408 212.959 32.5846C212.959 32.5846 214.072 34.9172 216.301 33.7981C216.804 34.5079 217.473 35.0835 218.251 35.4743C219.028 35.8651 219.889 36.0592 220.759 36.0395C223.843 36.0395 227.531 29.224 224.532 21.6602C221.532 14.0964 224.962 9.20479 219.049 3.36063C213.135 -2.48353 201.478 0.468413 197.709 3.36063C193.939 6.25284 195.231 19.5162 191.792 23.2635C188.353 27.0108 175.079 25.5049 175.079 37.6397C175.079 49.7744 182.106 48.19 182.106 52.5786C182.106 56.9672 183.392 58.2719 188.362 63.6885C193.332 69.1051 196.344 70.8279 197.705 71.6232C199.46 72.6512 200.296 72.7518 200.296 72.7518L196.278 64.0437C196.278 64.0437 191.103 61.6168 191.103 58.9132C191.103 56.2096 196.045 57.4199 196.734 55.4551C197.422 53.4903 189.733 50.8778 189.047 48.3597C188.362 45.8416 189.99 46.1246 189.99 46.1246Z" fill="#1B2B80"/>
<path d="M196.734 57.6368C196.734 57.6368 191.877 53.594 189.362 55.6468C186.847 57.6997 190.446 66.4141 194.162 65.7916C197.878 65.1691 199.875 61.0603 196.734 57.6368Z" fill="#FC7575"/>
<path d="M195.414 59.1018C195.414 59.1018 189.616 56.0839 189.616 59.1018C189.616 62.1198 192.914 64.4461 195.414 61.9312C197.913 59.4162 195.414 59.1018 195.414 59.1018Z" fill="#FD5E5A"/>
<path d="M211.403 64.3015C215.204 63.6979 219.077 62.1732 221.998 59.7148C222.996 58.8661 223.918 57.9308 224.752 56.92C224.164 58.1289 223.377 59.2308 222.425 60.1801C220.574 62.2864 215.98 64.6316 211.403 64.3015Z" fill="white"/>
<path d="M199.277 53.9461C199.252 53.7827 198.721 49.9002 200.975 47.03C203.283 44.078 207.058 44.9268 207.219 44.9645C207.323 44.9891 207.413 45.0541 207.469 45.1452C207.526 45.2363 207.543 45.346 207.519 45.4502C207.494 45.5545 207.429 45.6446 207.338 45.7009C207.247 45.7572 207.137 45.7751 207.033 45.7505C206.895 45.719 203.597 44.9897 201.613 47.5267C199.576 50.1328 200.073 53.8141 200.076 53.8424C200.084 53.8948 200.081 53.9482 200.068 53.9996C200.055 54.051 200.032 54.0993 200 54.1417C199.968 54.1842 199.929 54.22 199.883 54.2471C199.838 54.2743 199.787 54.2922 199.735 54.2998C199.682 54.3074 199.629 54.3047 199.578 54.2917C199.526 54.2786 199.478 54.2557 199.435 54.224C199.393 54.1923 199.357 54.1526 199.33 54.1071C199.303 54.0615 199.285 54.0111 199.277 53.9587V53.9461Z" fill="#172866"/>
<path d="M212.573 42.2452C213.135 38.916 219.156 38.5136 220.281 39.3027C220.369 39.3644 220.428 39.4584 220.446 39.5639C220.465 39.6694 220.44 39.7779 220.379 39.8654C220.317 39.953 220.223 40.0124 220.117 40.0307C220.012 40.049 219.903 40.0246 219.816 39.9629C219.816 39.9629 218.973 39.4851 216.339 40.0289C213.704 40.5728 213.384 42.3081 213.371 42.3836C213.349 42.4859 213.288 42.5757 213.201 42.6342C213.115 42.6927 213.009 42.7155 212.905 42.6976C212.802 42.6797 212.71 42.6227 212.648 42.5384C212.586 42.454 212.559 42.349 212.573 42.2452Z" fill="#172866"/>
<path d="M203.833 53.3771C204.477 52.4038 205.267 51.5354 206.175 50.8024C206.689 50.3838 207.234 50.0054 207.807 49.6707C207.011 48.825 205.508 48.869 204.386 49.7933C203.264 50.7175 202.915 52.2862 203.688 53.2231C203.733 53.2771 203.782 53.3285 203.833 53.3771Z" fill="#1B2B80"/>
<path d="M215.638 45.7411C216.602 45.0876 217.663 44.5891 218.782 44.2636C219.415 44.0685 220.062 43.9224 220.718 43.8266C220.306 42.742 218.904 42.2076 217.515 42.632C216.075 43.069 215.198 44.3673 215.55 45.5274C215.574 45.6005 215.604 45.6719 215.638 45.7411Z" fill="#1B2B80"/>
<path d="M217.606 53.4243C216.637 52.9365 215.623 52.5448 214.578 52.2549C214.285 53.1711 214.075 54.1117 213.95 55.0654C214.329 54.3528 214.645 53.608 214.893 52.8396C215.776 53.1222 216.685 53.318 217.606 53.4243Z" fill="#18287D"/>
<path d="M312.53 59.3093C312.53 59.3093 314.844 73.2013 317.161 71.9816C319.478 70.7618 318.84 62.1512 317.161 60.4724C315.482 58.7937 312.53 59.3093 312.53 59.3093Z" fill="#FC7575"/>
<path d="M310.675 69.4478C310.675 69.4478 316.309 63.5062 318.623 64.333C320.937 65.1598 313.385 72.7392 313.385 72.7392V76.4928C313.385 76.4928 309.427 71.7867 310.675 69.4478Z" fill="#FF9494"/>
<path d="M320.695 60.6265C320.695 60.6265 322.037 69.913 320.695 71.2523C319.352 72.5915 317.771 68.3286 317.039 64.4273C316.306 60.5259 316.476 59.938 316.476 59.938C316.476 59.938 319.648 58.8818 320.695 60.6265Z" fill="#FC7575"/>
<path d="M323.864 62.7234C323.864 62.7234 322.578 70.3721 321.088 70.3721C319.598 70.3721 319.695 60.6266 321.292 60.6266C322.889 60.6266 323.864 62.7234 323.864 62.7234Z" fill="#FC7575"/>
<path d="M398.441 131.325L397.467 116.704C397.452 116.573 397.464 116.44 397.502 116.313C397.54 116.187 397.604 116.069 397.689 115.968C397.773 115.866 397.878 115.783 397.996 115.724C398.113 115.664 398.242 115.628 398.374 115.62C398.506 115.611 398.638 115.629 398.763 115.673C398.887 115.717 399.002 115.785 399.099 115.875C399.197 115.964 399.275 116.072 399.329 116.192C399.384 116.313 399.413 116.443 399.416 116.575C399.425 116.701 399.47 115.88 398.441 131.325Z" fill="#D2D2FF"/>
<path d="M80.9974 139.977L80.0228 126.33C80.0044 126.071 80.0897 125.816 80.2598 125.62C80.4299 125.424 80.6709 125.303 80.9298 125.285C81.1887 125.266 81.4442 125.352 81.6403 125.522C81.8363 125.692 81.9567 125.933 81.9751 126.192C81.9814 126.324 82.0285 125.519 80.9974 139.977Z" fill="#D2D2FF"/>
<path d="M400.026 348.047L395.59 137.651C395.589 137.587 395.6 137.523 395.623 137.463C395.646 137.404 395.681 137.349 395.725 137.303C395.769 137.257 395.822 137.219 395.881 137.194C395.939 137.168 396.002 137.154 396.066 137.152C396.13 137.151 396.194 137.162 396.254 137.185C396.313 137.208 396.368 137.243 396.414 137.287C396.46 137.332 396.498 137.384 396.523 137.443C396.549 137.502 396.563 137.565 396.565 137.629C396.565 137.629 400.026 347.943 400.026 348.047Z" fill="#D2D2FF"/>
<path d="M82.4656 359.804L81.7362 146.66C81.7484 146.475 81.8307 146.301 81.9664 146.174C82.1022 146.047 82.2812 145.976 82.4671 145.976C82.6531 145.976 82.8321 146.047 82.9679 146.174C83.1036 146.301 83.1859 146.475 83.1981 146.66C83.1981 146.66 82.4656 359.744 82.4656 359.804Z" fill="#D2D2FF"/>
<path d="M41.2721 46.4484C40.3981 47.1148 32.1141 44.8954 32.0104 52.9024C31.8909 56.6749 35.0253 61.5696 37.2354 64.641C42.2184 71.4817 48.9965 77.9955 55.784 83.1732C64.0522 89.4606 70.6354 92.3623 70.5882 92.3371C70.865 92.4849 71.0742 92.7336 71.1724 93.0316C71.2706 93.3295 71.2501 93.6539 71.1154 93.9372C70.9806 94.2205 70.7418 94.441 70.4487 94.5528C70.1555 94.6647 69.8306 94.6593 69.5413 94.5377C54.0171 87.1877 24.7042 58.8943 32.9755 48.6395C35.4277 45.5618 40.593 46.9294 41.2721 46.4484Z" fill="#FFFF00"/>
<path d="M353.152 47.2784C353.046 47.2788 352.943 47.2446 352.859 47.1809C352.757 47.1029 352.689 46.9875 352.67 46.8598C352.652 46.7321 352.685 46.6024 352.762 46.4987C366.362 28.2935 385.652 19.1767 399.438 14.7441C414.355 9.94363 426.252 9.43121 426.371 9.43121C426.435 9.42783 426.5 9.43735 426.56 9.45922C426.62 9.48108 426.676 9.51485 426.723 9.55852C426.77 9.60219 426.808 9.65487 426.835 9.71346C426.861 9.77205 426.876 9.83535 426.877 9.89962C426.882 10.0287 426.835 10.1542 426.747 10.2489C426.659 10.3437 426.538 10.4 426.409 10.4058C426.293 10.4058 414.516 10.915 399.712 15.6809C386.067 20.0821 366.981 29.0857 353.541 47.0835C353.496 47.1438 353.437 47.1928 353.369 47.2266C353.302 47.2604 353.227 47.2781 353.152 47.2784Z" fill="#1B2B80"/>
<path d="M51.3952 108.276C51.3415 108.276 51.2883 108.266 51.238 108.247C29.9575 100.85 19.652 86.3295 14.7539 75.4491C9.44717 63.6697 9.16737 53.4872 9.16423 53.3834C9.16253 53.2544 9.21174 53.13 9.30118 53.037C9.39063 52.944 9.51311 52.89 9.64209 52.8867C9.70656 52.8842 9.77088 52.8947 9.83123 52.9175C9.89157 52.9403 9.9467 52.9751 9.99334 53.0197C10.04 53.0642 10.0772 53.1178 10.1027 53.177C10.1282 53.2363 10.1416 53.3001 10.142 53.3646C10.142 53.462 10.4218 63.481 15.6594 75.0845C20.482 85.7731 30.6239 100.046 51.5555 107.326C51.6613 107.366 51.75 107.442 51.8063 107.54C51.8626 107.638 51.883 107.753 51.8641 107.864C51.8451 107.976 51.788 108.077 51.7024 108.151C51.6169 108.225 51.5082 108.267 51.3952 108.27V108.276Z" fill="#1B2B80"/>
</g>
<defs>
<linearGradient id="paint0_linear_17_600" x1="136.423" y1="326.754" x2="48.6798" y2="202.446" gradientUnits="userSpaceOnUse">
<stop stop-color="#F5AB39"/>
<stop offset="1" stop-color="#FFFB4D"/>
</linearGradient>
<linearGradient id="paint1_linear_17_600" x1="216.829" y1="238.532" x2="112.995" y2="153.708" gradientUnits="userSpaceOnUse">
<stop stop-color="#F57939"/>
<stop offset="1" stop-color="#FFFB4D"/>
</linearGradient>
<linearGradient id="paint2_linear_17_600" x1="220.303" y1="255.304" x2="335.834" y2="125.147" gradientUnits="userSpaceOnUse">
<stop stop-color="#F5AB39"/>
<stop offset="1" stop-color="#FFFB4D"/>
</linearGradient>
<clipPath id="clip0_17_600">
<rect width="498" height="420" fill="white"/>
</clipPath>
</defs>
</svg>
