<svg width="60" height="60" viewBox="0 0 60 60" fill="none" xmlns="http://www.w3.org/2000/svg">
<path d="M32.4169 3.75H27.6169C22.8356 3.75 18.9356 7.63125 18.9356 12.4313V15.225H27.8606C28.2336 15.225 28.5913 15.3732 28.855 15.6369C29.1187 15.9006 29.2669 16.2583 29.2669 16.6312C29.2669 17.0042 29.1187 17.3619 28.855 17.6256C28.5913 17.8893 28.2336 18.0375 27.8606 18.0375H18.9356V21.2063H27.8606C28.6481 21.2063 29.2669 21.825 29.2669 22.6125C29.2669 23.3813 28.6481 24.0188 27.8606 24.0188H18.9356V27.1687H27.8606C28.2336 27.1687 28.5913 27.3169 28.855 27.5806C29.1187 27.8444 29.2669 28.202 29.2669 28.575C29.2669 28.948 29.1187 29.3056 28.855 29.5694C28.5913 29.8331 28.2336 29.9812 27.8606 29.9812H18.9356V32.5688C18.9356 37.3688 22.8169 41.25 27.6169 41.25H32.4169C37.2169 41.25 41.0981 37.3688 41.0981 32.5688V12.4313C41.0981 7.63125 37.1981 3.75 32.4169 3.75ZM41.0981 15.225V18.0375H32.1731C31.8001 18.0375 31.4425 17.8893 31.1787 17.6256C30.915 17.3619 30.7669 17.0042 30.7669 16.6312C30.7669 16.2583 30.915 15.9006 31.1787 15.6369C31.4425 15.3732 31.8001 15.225 32.1731 15.225H41.0981ZM32.1731 21.2063H41.0981V24.0188H32.1731C31.3856 24.0188 30.7669 23.3813 30.7669 22.6125C30.7669 21.825 31.3856 21.2063 32.1731 21.2063ZM41.0981 27.1687V29.9812H32.1731C31.8001 29.9812 31.4425 29.8331 31.1787 29.5694C30.915 29.3056 30.7669 28.948 30.7669 28.575C30.7669 28.202 30.915 27.8444 31.1787 27.5806C31.4425 27.3169 31.8001 27.1687 32.1731 27.1687H41.0981Z" fill="white"/>
<path d="M44.8481 24.1499C45.3454 24.1499 45.8223 24.3474 46.1739 24.6991C46.5256 25.0507 46.7231 25.5276 46.7231 26.0249V34.0687C46.7231 37.4648 45.3741 40.7218 42.9729 43.1234C40.5717 45.525 37.3148 46.8744 33.9187 46.8749L25.9293 46.8937C18.8718 46.8937 13.1418 41.158 13.1418 34.0874V26.0437C13.1418 25.5464 13.3394 25.0695 13.691 24.7178C14.0427 24.3662 14.5196 24.1687 15.0168 24.1687C15.5141 24.1687 15.991 24.3662 16.3427 24.7178C16.6943 25.0695 16.8918 25.5464 16.8918 26.0437V34.0874C16.8908 36.486 17.8418 38.787 19.536 40.485C21.2301 42.1829 23.5289 43.1392 25.9275 43.1437L33.915 43.1249C36.3168 43.1249 38.6203 42.1708 40.3187 40.4724C42.0171 38.774 42.9712 36.4705 42.9712 34.0687V26.0249C42.9712 25.5276 43.1688 25.0507 43.5204 24.6991C43.872 24.3474 44.3508 24.1499 44.8481 24.1499ZM21.1668 48.7499H25.9106V46.8937H34.1418V48.7499H38.8668C40.6106 48.7499 42.2043 49.7062 43.0106 51.2249L44.8668 54.6374C45.2606 55.3686 44.7356 56.2499 43.9106 56.2499H16.1043C15.2793 56.2499 14.7543 55.3686 15.1481 54.6374L17.0043 51.2249C17.8293 49.7062 19.4418 48.7499 21.1668 48.7499Z" fill="white"/>
</svg>
